<svg width="55" height="53" viewBox="0 0 55 53" fill="none" xmlns="http://www.w3.org/2000/svg">
<g clip-path="url(#clip0)">
<path d="M17.5509 8.202C18.0422 7.32962 17.7204 6.01929 16.8516 5.2453C15.9825 4.47775 14.8942 4.54043 14.403 5.41281C13.9118 6.2852 14.2044 7.63543 15.0721 8.4055C15.9423 9.17698 17.0597 9.07439 17.5509 8.202Z" fill="#FCBA29"/>
<path d="M50.511 24.4273C49.4026 24.0846 48.1114 24.49 47.6202 25.3624C47.3257 25.8853 47.388 26.4568 47.7212 26.906C44.3452 27.409 41.0136 27.7979 37.7329 28.073C37.7788 28.3207 37.7951 28.5683 37.7841 28.8171C37.6907 30.9234 35.541 32.5241 33.029 32.2984C30.5117 32.0763 28.6214 30.035 28.7593 27.8378C28.9001 25.6356 30.9767 24.1824 33.4455 24.4965C33.6168 21.1227 33.8026 17.7174 34.0082 14.2769C35.2052 14.9443 36.6604 14.618 37.2423 13.5848C37.827 12.5464 37.3138 11.1879 36.1146 10.5126C34.9154 9.83736 33.4877 10.103 32.903 11.1413C32.3183 12.1796 32.7975 13.5984 33.9981 14.2712C34.0006 14.2726 34.0031 14.274 34.0056 14.2754C31.1743 16.2341 28.3573 18.1611 25.5628 20.0543C25.7377 20.2787 25.8967 20.5139 26.0306 20.7582C27.2176 22.8902 26.5197 25.282 24.4423 26.1486C22.3649 27.0152 19.7517 25.9344 18.6349 23.6897C17.5181 21.4449 18.2649 18.978 20.2707 18.2267C18.7897 15.247 17.3795 12.1648 16.0493 8.982C13.968 16.171 11.9144 23.3226 9.89387 30.4331C9.29259 29.972 8.69949 29.5023 8.11064 29.025C7.01352 28.139 5.66715 28.2484 5.06972 29.3093C4.47372 30.3678 4.8571 31.9744 5.95028 32.8615C13.9475 39.3349 22.978 44.4201 32.6638 47.9007C33.9903 48.3795 35.5617 47.8703 36.1577 46.8119C36.7552 45.7509 36.1481 44.5415 34.8242 44.0642C34.1197 43.8099 33.418 43.5506 32.7195 43.2798C37.7174 37.8855 42.7317 32.4442 47.7677 26.9587C47.9906 27.2332 48.3194 27.4548 48.7368 27.5839C49.8452 27.9266 51.1515 27.4767 51.6427 26.6043C52.13 25.7331 51.6219 24.7714 50.511 24.4273ZM15.6298 29.8319C15.143 29.9849 14.6561 30.138 14.1707 30.2885C14.0831 29.7325 13.9969 29.174 13.9107 28.6156C13.8231 28.0596 13.7369 27.5012 13.6547 26.9416C14.1344 26.8011 14.6131 26.6568 15.0957 26.5113C15.5783 26.3658 16.0608 26.2203 16.5448 26.0723C16.6339 26.6258 16.7243 27.1767 16.8147 27.7276C16.9052 28.2786 16.997 28.827 17.0903 29.3729C16.6034 29.5259 16.1166 29.6789 15.6298 29.8319ZM24.0593 34.9495C23.3541 35.208 22.6464 35.4652 21.943 35.7147C21.7931 34.9813 21.6471 34.2468 21.5 33.5083C21.3504 32.7685 21.2061 32.025 21.0608 31.2776C21.7572 31.0406 22.4589 30.7999 23.162 30.5568C23.8601 30.3108 24.5622 30.0638 25.267 29.8117C25.417 30.5451 25.5672 31.2721 25.7213 31.998C25.878 32.7253 26.0336 33.4487 26.1945 34.1684C25.4815 34.4291 24.7684 34.6899 24.0593 34.9495ZM32.1809 38.897C31.6587 39.1128 31.1364 39.3287 30.6156 39.5421C30.4926 39.049 30.3711 38.5534 30.2495 38.0577C30.1265 37.5646 30.0063 37.0665 29.8847 36.5709C30.3999 36.3676 30.9164 36.1618 31.4344 35.9535C31.9524 35.7451 32.4704 35.5368 32.9897 35.326C33.1142 35.8165 33.24 36.3046 33.3658 36.7927C33.4916 37.2808 33.6164 37.7649 33.745 38.248C33.2214 38.4663 32.6992 38.6822 32.1809 38.897Z" fill="#FCBA29"/>
</g>
<defs>
<clipPath id="clip0">
<rect x="17.4512" width="42.8434" height="35.5667" transform="rotate(29.3841 17.4512 0)" fill="white"/>
</clipPath>
</defs>
</svg>
